<?xml version="1.0"?>
<svg xmlns="http://www.w3.org/2000/svg" height="512px" viewBox="0 0 496 496" width="512px"><path d="m480.839844 383.800781-19.183594-38.375c-10.023438-20.042969-24.664062-37.898437-42.335938-51.640625-31.328124-24.371094-70.441406-37.785156-110.121093-37.785156h-69.199219v-136h-17.136719c-3.296875-12.695312-14.152343-22.238281-27.496093-23.65625 2.871093-4.800781 4.632812-10.351562 4.632812-16.34375 0-17.648438-14.351562-32-32-32-9.609375 0-18.128906 4.335938-24 11.054688-.953125-1.085938-1.96875-2.101563-3.054688-3.054688 6.71875-5.871094 11.054688-14.390625 11.054688-24 0-17.648438-14.351562-32-32-32s-32 14.351562-32 32c0 9.609375 4.335938 18.128906 11.054688 24-1.085938.953125-2.101563 1.96875-3.054688 3.054688-5.871094-6.71875-14.390625-11.054688-24-11.054688-17.648438 0-32 14.351562-32 32 0 5.992188 1.761719 11.542969 4.632812 16.34375-13.34375 1.417969-24.199218 10.960938-27.496093 23.65625h-17.136719v176h185.695312c-1.078124 4.59375-1.695312 9.328125-1.695312 14.167969 0 13.214843 4.367188 26.328125 12.304688 36.894531l6.6875 8.921875c-5.398438 3.457031-9.320313 8.902344-10.550782 15.390625-.65625 3.464844-.570312 6.9375.222656 10.234375-5.375 4.46875-8.664062 11.167969-8.664062 18.390625 0 1.902344.222656 3.792969.664062 5.609375-5.375 4.46875-8.664062 11.167969-8.664062 18.390625s3.289062 13.921875 8.664062 18.390625c-.441406 1.816406-.664062 3.707031-.664062 5.609375 0 7.222656 3.289062 13.921875 8.664062 18.390625-.800781 3.304687-.878906 6.792969-.222656 10.257813 2.144532 11.207031 12.367188 19.351562 24.300782 19.351562h215.257812c11.9375 0 22.160156-8.144531 24.304688-19.351562.664062-3.472657.566406-6.953126-.214844-10.265626 5.367187-4.472656 8.652344-11.160156 8.652344-18.382812 0-1.902344-.222657-3.792969-.664063-5.609375 1.28125-1.0625 2.441406-2.246094 3.464844-3.535156l28.457031 28.457031v-19.3125c0-22.167969-5.238281-44.367188-15.160156-64.199219zm-275.0625-263.800781h-27.546875c2.777343-4.761719 7.882812-8 13.777343-8 5.894532 0 10.992188 3.238281 13.769532 8zm-109.777344-8c5.894531 0 11 3.238281 13.777344 8h-27.546875c2.769531-4.761719 7.875-8 13.769531-8zm48 0c5.894531 0 11 3.238281 13.777344 8h-27.546875c2.769531-4.761719 7.875-8 13.769531-8zm24-48c8.824219 0 16 7.175781 16 16s-7.175781 16-16 16-16-7.175781-16-16 7.175781-16 16-16zm-64-32c0-8.824219 7.175781-16 16-16s16 7.175781 16 16-7.175781 16-16 16-16-7.175781-16-16zm16 32c8.824219 0 16 7.175781 16 16s-7.175781 16-16 16-16-7.175781-16-16 7.175781-16 16-16zm-48 0c8.824219 0 16 7.175781 16 16s-7.175781 16-16 16-16-7.175781-16-16 7.175781-16 16-16zm-24 48c5.894531 0 11 3.238281 13.777344 8h-27.554688c2.777344-4.761719 7.882813-8 13.777344-8zm-32 168v-95.535156c.929688.121094 1.816406.253906 2.71875.398437 3.105469.496094 6.625 1.066407 13.257812 1.066407 6.632813 0 10.160157-.5625 13.253907-1.066407 2.890625-.464843 5.371093-.863281 10.730469-.863281 5.367187 0 7.855468.398438 10.742187.855469 3.113281.496093 6.632813 1.066406 13.273437 1.066406 6.648438 0 10.167969-.5625 13.28125-1.066406 2.886719-.457031 5.375-.855469 10.742188-.855469v-16c-6.640625 0-10.167969.558594-13.273438 1.0625-2.878906.464844-5.375.859375-10.75.859375-5.367187 0-7.855468-.402344-10.746093-.859375-3.101563-.503906-6.628907-1.0625-13.269531-1.0625-6.632813 0-10.160157.558594-13.257813 1.0625-2.878906.464844-5.367187.859375-10.726563.859375-5.359374 0-7.839843-.402344-10.730468-.859375-1.535156-.246094-3.175782-.511719-5.246094-.710938v-32.351562h208v56.351562c-2.078125.199219-3.726562.464844-5.273438.710938-2.878906.464844-5.375.859375-10.75.859375-5.367187 0-7.855468-.402344-10.746093-.859375-3.101563-.503906-6.628907-1.0625-13.269531-1.0625-6.632813 0-10.160157.558594-13.257813 1.0625-2.878906.464844-5.367187.859375-10.726563.859375-5.359374 0-7.839843-.402344-10.730468-.859375-3.09375-.503906-6.621094-1.0625-13.246094-1.0625v16c5.351562 0 7.832031.398438 10.71875.855469 3.105469.496093 6.625 1.066406 13.257812 1.066406 6.632813 0 10.160157-.5625 13.253907-1.066406 2.890625-.457031 5.371093-.855469 10.730469-.855469 5.367187 0 7.855468.398438 10.742187.855469 3.113281.496093 6.632813 1.066406 13.273437 1.066406 6.648438 0 10.167969-.5625 13.28125-1.066406.910157-.144531 1.804688-.28125 2.742188-.398438v47.910157c-8.289062.855468-16.007812 4.328124-21.984375 10.304687-4.015625 4.015625-7.359375 8.511719-10.078125 13.328125zm435.351562 151.503906-9.816406 3.441406 5.839844 8.597657c.890625 1.3125 1.359375 2.847656 1.359375 4.464843 0 3.351563-2.167969 6.367188-5.390625 7.503907l-9.808594 3.433593 5.832032 8.597657c.847656 1.25 1.746093 3.328125 1.207031 6.113281-.6875 3.609375-4.375 6.34375-8.574219 6.34375h-215.257812c-4.199219 0-7.886719-2.734375-8.582032-6.335938-.527344-2.816406.367188-4.878906 1.207032-6.136718l5.832031-8.597656-9.808594-3.433594c-3.222656-1.128906-5.390625-4.144532-5.390625-7.496094 0-1.609375.472656-3.152344 1.359375-4.464844l5.839844-8.597656-9.816407-3.441406c-3.214843-1.128906-5.382812-4.144532-5.382812-7.496094s2.167969-6.367188 5.390625-7.503906l9.816406-3.441406-5.839843-8.597657c-.894532-1.304687-1.367188-2.847656-1.367188-4.457031 0-3.351562 2.167969-6.367188 5.390625-7.503906l9.808594-3.433594-5.832031-8.597656c-.839844-1.25-1.742188-3.320313-1.207032-6.121094.679688-3.609375 4.375-6.34375 8.582032-6.34375h131.019531c26.710937 0 52.917969 9.191406 73.78125 25.871094 3.417969 2.738281 6.695312 5.671875 9.746093 8.722656l24.71875 24.71875c-.894531 1.910156-2.550781 3.449219-4.65625 4.191406zm-8.757812-40.222656c-3.464844-3.464844-7.167969-6.792969-11.058594-9.898438-23.695312-18.941406-53.445312-29.382812-83.773437-29.382812h-127.761719l-10.894531-14.535156c-5.875-7.824219-9.105469-17.519532-9.105469-27.296875 0-12.160157 4.734375-23.582031 13.328125-32.175781 3.855469-3.863282 8.992187-5.992188 14.449219-5.992188h12.222656v40h16v-40h24v40h16v-40h13.199219c3.609375 0 7.207031.214844 10.800781.457031v39.542969h16v-37.761719c26.640625 4.464844 52.0625 15.503907 73.496094 32.167969 15.808594 12.289062 28.886718 28.25 37.847656 46.167969l19.183594 38.378906c5.65625 11.3125 9.601562 23.488281 11.695312 35.957031zm0 0" fill="#FFFFFF"/><path d="m119.976562 241.921875c-5.367187 0-7.855468-.402344-10.746093-.859375-3.101563-.503906-6.628907-1.0625-13.269531-1.0625-6.632813 0-10.160157.558594-13.257813 1.0625-2.878906.464844-5.367187.859375-10.726563.859375-5.359374 0-7.839843-.402344-10.730468-.859375-3.09375-.503906-6.621094-1.0625-13.246094-1.0625v16c5.351562 0 7.832031.398438 10.71875.855469 3.105469.496093 6.625 1.066406 13.257812 1.066406 6.632813 0 10.160157-.5625 13.253907-1.066406 2.890625-.457031 5.371093-.855469 10.730469-.855469 5.367187 0 7.855468.398438 10.742187.855469 3.113281.496093 6.632813 1.066406 13.273437 1.066406 6.648438 0 10.167969-.5625 13.28125-1.066406 2.886719-.457031 5.375-.855469 10.742188-.855469v-16c-6.640625 0-10.167969.558594-13.273438 1.0625-2.886718.457031-5.375.859375-10.75.859375zm0 0" fill="#FFFFFF"/><path d="m232 384h16v16h-16zm0 0" fill="#FFFFFF"/><path d="m264 424h16v16h-16zm0 0" fill="#FFFFFF"/><path d="m336 400h16v16h-16zm0 0" fill="#FFFFFF"/><path d="m304 448h16v16h-16zm0 0" fill="#FFFFFF"/><path d="m368 432h16v16h-16zm0 0" fill="#FFFFFF"/><path d="m400 400h16v16h-16zm0 0" fill="#FFFFFF"/></svg>
